<?xml version="1.0" encoding="UTF-8" standalone="no"?>
<svg
   id="Ebene_1"
   data-name="Ebene 1"
   viewBox="0 0 225 225"
   version="1.1"
   sodipodi:docname="whyicare_2.svg"
   inkscape:version="1.1.1 (1:1.1+202109281944+c3084ef5ed)"
   xmlns:inkscape="http://www.inkscape.org/namespaces/inkscape"
   xmlns:sodipodi="http://sodipodi.sourceforge.net/DTD/sodipodi-0.dtd"
   xmlns="http://www.w3.org/2000/svg"
   xmlns:svg="http://www.w3.org/2000/svg">
  <sodipodi:namedview
     id="namedview1326"
     pagecolor="#ffffff"
     bordercolor="#666666"
     borderopacity="1.0"
     inkscape:pageshadow="2"
     inkscape:pageopacity="0.0"
     inkscape:pagecheckerboard="0"
     showgrid="false"
     inkscape:zoom="3.4755556"
     inkscape:cx="55.674552"
     inkscape:cy="112.35614"
     inkscape:window-width="1856"
     inkscape:window-height="1016"
     inkscape:window-x="0"
     inkscape:window-y="0"
     inkscape:window-maximized="1"
     inkscape:current-layer="Ebene_1" />
  <defs
     id="defs1314">
    <style
       id="style1312">.cls-1{fill:#fff8f0;}.cls-2{fill:none;stroke:#0d1317;}.cls-3{fill:#fec601;}</style>
  </defs>
  <title
     id="title1316">whyicare_2</title>
  <g
     id="Page-1">
    <g
       id="Desktop-_1140_"
       data-name="Desktop-(&lt;1140)">
      <g
         id="wherefrom_2"
         data-name="wherefrom 2">
        <circle
           id="Oval-Copy"
           class="cls-1"
           cx="112.5"
           cy="112.5"
           r="112"
           style="fill:#f7f7f7;fill-opacity:1" />
        <path
           id="Path"
           class="cls-2"
           d="M179.46,202.93a67,67,0,0,0-133.92,0"
           style="stroke:#141414;stroke-opacity:1" />
        <path
           id="Combined-Shape"
           class="cls-2"
           d="M9.3,68.54a9,9,0,0,0,2,3.83A8.89,8.89,0,0,0,18.2,75a23.3,23.3,0,0,0,9.23-2V77A23.76,23.76,0,0,1,23,78.39a24.62,24.62,0,0,1-5,.44q-6.4,0-10.11-3.9c-.29-.31-.56-.64-.82-1m5.77-12.88H24a9.63,9.63,0,0,0-1.85-6.34,6.16,6.16,0,0,0-4.29-2.15m2.25-3.37a10.26,10.26,0,0,1,5.42,3.23,13.67,13.67,0,0,1,3.16,9.42v2.77H11.09M219.5,78.57a38.32,38.32,0,0,1-4.57.26q-8.52,0-13.15-5.17T197.16,59a23.13,23.13,0,0,1,2.23-10.44,17,17,0,0,1,2.38-3.6m2.84,3.86A18.13,18.13,0,0,0,202,59q0,7.56,3.54,11.69t10.11,4.13a25.47,25.47,0,0,0,2.56-.14M72.31,78.3H50.82V39.75H72.31v4h-17V56.15h16v4h-16V74.29h17ZM98,78.3l-.87-4.11h-.21a12.12,12.12,0,0,1-4.31,3.67,13,13,0,0,1-5.36,1,9.64,9.64,0,0,1-6.74-2.22A8,8,0,0,1,78,70.31q0-8.76,14-9.18L96.94,61v-1.8a7.31,7.31,0,0,0-1.47-5Q94,52.54,90.79,52.54a19.13,19.13,0,0,0-8.17,2.21l-1.35-3.34A20.51,20.51,0,0,1,86,49.59a20.3,20.3,0,0,1,5.11-.66q5.16,0,7.66,2.29t2.49,7.36V78.3Zm-9.88-3.08A8.88,8.88,0,0,0,94.5,73a8.29,8.29,0,0,0,2.33-6.27V64.09l-4.38.18q-5.22.2-7.52,1.62a4.89,4.89,0,0,0-2.31,4.47A4.52,4.52,0,0,0,84.06,74,6,6,0,0,0,88.08,75.22Zm35.33-26.35a17.16,17.16,0,0,1,3.45.32l-.6,4.06a15.15,15.15,0,0,0-3.17-.39,7.69,7.69,0,0,0-6,2.84,10.41,10.41,0,0,0-2.49,7.1V78.3h-4.38V49.4h3.62l.5,5.35h.21a12.69,12.69,0,0,1,3.87-4.35A8.76,8.76,0,0,1,123.41,48.87ZM141.6,75.22a13.64,13.64,0,0,0,2.24-.18,15,15,0,0,0,1.72-.35V78a8.56,8.56,0,0,1-2.1.56,15.67,15.67,0,0,1-2.49.23q-8.39,0-8.39-8.84V52.8h-4.14V50.69l4.14-1.82,1.85-6.17H137v6.7h8.39v3.4H137v17a5.84,5.84,0,0,0,1.24,4A4.32,4.32,0,0,0,141.6,75.22Zm29.51,3.08V59.61a7.56,7.56,0,0,0-1.61-5.28q-1.6-1.74-5-1.74-4.56,0-6.66,2.48t-2.09,8.12V78.3h-4.38v-41h4.38V49.69a27.21,27.21,0,0,1-.21,3.72h.26a8.92,8.92,0,0,1,3.68-3.28,11.93,11.93,0,0,1,5.44-1.2q5.31,0,8,2.52t2.65,8V78.3Z"
           style="stroke:#141414;stroke-opacity:1" />
        <path
           id="Accesstotools"
           class="cls-3"
           d="M42.82,118.63l-2.09-5.32H34L32,118.63H30l6.61-16.8h1.64l6.58,16.8Zm-2.69-7.07-2-5.19c-.25-.65-.51-1.46-.78-2.41a20.88,20.88,0,0,1-.72,2.41l-2,5.19Zm11.73,7.3a5.4,5.4,0,0,1-4.22-1.67,6.93,6.93,0,0,1-1.49-4.75,7.14,7.14,0,0,1,1.52-4.87A5.47,5.47,0,0,1,52,105.86a8.56,8.56,0,0,1,1.81.19,5.91,5.91,0,0,1,1.42.46l-.59,1.61a9.63,9.63,0,0,0-1.37-.41,6.2,6.2,0,0,0-1.32-.17q-3.82,0-3.82,4.88a5.84,5.84,0,0,0,.93,3.55,3.26,3.26,0,0,0,2.77,1.23,8.4,8.4,0,0,0,3.21-.67v1.68A6.75,6.75,0,0,1,51.86,118.86Zm11.17,0a5.37,5.37,0,0,1-4.22-1.67,6.89,6.89,0,0,1-1.5-4.75,7.14,7.14,0,0,1,1.52-4.87,5.47,5.47,0,0,1,4.32-1.71,8.5,8.5,0,0,1,1.81.19,5.76,5.76,0,0,1,1.42.46l-.58,1.61a9.77,9.77,0,0,0-1.38-.41,6.12,6.12,0,0,0-1.31-.17q-3.82,0-3.83,4.88a5.77,5.77,0,0,0,.94,3.55A3.24,3.24,0,0,0,63,117.2a8.45,8.45,0,0,0,3.22-.67v1.68A6.8,6.8,0,0,1,63,118.86Zm11.45,0a5.79,5.79,0,0,1-4.4-1.69,6.57,6.57,0,0,1-1.6-4.71A7.26,7.26,0,0,1,70,107.64a5,5,0,0,1,4-1.78,4.72,4.72,0,0,1,3.74,1.55,6,6,0,0,1,1.37,4.09v1.2H70.45a5,5,0,0,0,1.11,3.36,3.87,3.87,0,0,0,3,1.14,10.16,10.16,0,0,0,4-.84v1.69a9.74,9.74,0,0,1-1.9.62A10.48,10.48,0,0,1,74.48,118.86ZM74,107.45a3.12,3.12,0,0,0-2.41,1,4.58,4.58,0,0,0-1.06,2.73h6.56a4.22,4.22,0,0,0-.8-2.76A2.84,2.84,0,0,0,74,107.45Zm16.46,7.76a3.13,3.13,0,0,1-1.3,2.7,6.08,6.08,0,0,1-3.66,1,7.94,7.94,0,0,1-3.9-.79v-1.76a9,9,0,0,0,1.94.72,7.91,7.91,0,0,0,2,.26,4.5,4.5,0,0,0,2.29-.47,1.64,1.64,0,0,0,.17-2.7,9.9,9.9,0,0,0-2.48-1.23A13.92,13.92,0,0,1,83,111.75a3.51,3.51,0,0,1-1.1-1.11,2.86,2.86,0,0,1-.36-1.47,2.81,2.81,0,0,1,1.25-2.43,5.81,5.81,0,0,1,3.42-.88,10,10,0,0,1,4,.82l-.67,1.55a9.12,9.12,0,0,0-3.43-.78,4,4,0,0,0-2,.42,1.32,1.32,0,0,0-.68,1.17,1.43,1.43,0,0,0,.25.86,2.55,2.55,0,0,0,.83.67,17.6,17.6,0,0,0,2.2.93,8.15,8.15,0,0,1,3,1.64A2.89,2.89,0,0,1,90.42,115.21Zm11.19,0a3.14,3.14,0,0,1-1.31,2.7,6.08,6.08,0,0,1-3.66,1,7.92,7.92,0,0,1-3.89-.79v-1.76a8.81,8.81,0,0,0,1.94.72,7.91,7.91,0,0,0,2,.26,4.52,4.52,0,0,0,2.29-.47,1.58,1.58,0,0,0,.8-1.45,1.54,1.54,0,0,0-.64-1.25,9.72,9.72,0,0,0-2.48-1.23,14.65,14.65,0,0,1-2.49-1.14,3.62,3.62,0,0,1-1.1-1.11,3,3,0,0,1,.89-3.9,5.82,5.82,0,0,1,3.43-.88,10,10,0,0,1,4,.82l-.68,1.55a9.08,9.08,0,0,0-3.42-.78,4,4,0,0,0-2,.42,1.31,1.31,0,0,0-.69,1.17,1.44,1.44,0,0,0,.26.86,2.45,2.45,0,0,0,.83.67,16.32,16.32,0,0,0,2.2.93,8.24,8.24,0,0,1,3,1.64A2.89,2.89,0,0,1,101.61,115.21Zm13.24,2.08a6.15,6.15,0,0,0,1-.07,7.25,7.25,0,0,0,.74-.15v1.45a3.56,3.56,0,0,1-.91.25,7.35,7.35,0,0,1-1.08.09q-3.64,0-3.64-3.83v-7.47h-1.8v-.91l1.8-.79.8-2.68h1.1v2.91h3.64v1.47h-3.64V115a2.55,2.55,0,0,0,.54,1.74A1.89,1.89,0,0,0,114.85,117.29Zm15.05-4.94a6.93,6.93,0,0,1-1.54,4.79,5.47,5.47,0,0,1-4.28,1.72,5.6,5.6,0,0,1-3-.79,5.18,5.18,0,0,1-2-2.26,8,8,0,0,1-.71-3.46,6.87,6.87,0,0,1,1.54-4.78,5.41,5.41,0,0,1,4.25-1.71,5.3,5.3,0,0,1,4.19,1.75A6.92,6.92,0,0,1,129.9,112.35Zm-9.56,0a6,6,0,0,0,1,3.66,3.82,3.82,0,0,0,5.66,0,5.9,5.9,0,0,0,1-3.67,5.81,5.81,0,0,0-1-3.64,3.4,3.4,0,0,0-2.85-1.24,3.33,3.33,0,0,0-2.82,1.23A5.89,5.89,0,0,0,120.34,112.35Zm23,4.94a6.15,6.15,0,0,0,1-.07,7.25,7.25,0,0,0,.74-.15v1.45a3.56,3.56,0,0,1-.91.25,7.35,7.35,0,0,1-1.08.09q-3.65,0-3.64-3.83v-7.47h-1.8v-.91l1.8-.79.8-2.68h1.1v2.91H145v1.47h-3.64V115a2.55,2.55,0,0,0,.54,1.74A1.89,1.89,0,0,0,143.38,117.29Zm15.05-4.94a6.93,6.93,0,0,1-1.54,4.79,5.44,5.44,0,0,1-4.27,1.72,5.61,5.61,0,0,1-3-.79,5.24,5.24,0,0,1-2-2.26,8,8,0,0,1-.71-3.46,6.87,6.87,0,0,1,1.54-4.78,5.42,5.42,0,0,1,4.26-1.71,5.29,5.29,0,0,1,4.18,1.75A6.92,6.92,0,0,1,158.43,112.35Zm-9.56,0a6,6,0,0,0,1,3.66,3.35,3.35,0,0,0,2.83,1.26A3.39,3.39,0,0,0,155.5,116a6,6,0,0,0,1-3.67,5.87,5.87,0,0,0-1-3.64,3.43,3.43,0,0,0-2.86-1.24,3.35,3.35,0,0,0-2.82,1.23A5.89,5.89,0,0,0,148.87,112.35Zm23.72,0a6.93,6.93,0,0,1-1.54,4.79,5.43,5.43,0,0,1-4.27,1.72,5.64,5.64,0,0,1-3-.79,5.16,5.16,0,0,1-2-2.26,7.83,7.83,0,0,1-.71-3.46,6.91,6.91,0,0,1,1.53-4.78,5.42,5.42,0,0,1,4.26-1.71,5.29,5.29,0,0,1,4.18,1.75A6.87,6.87,0,0,1,172.59,112.35Zm-9.56,0a6,6,0,0,0,1,3.66,3.33,3.33,0,0,0,2.82,1.26,3.39,3.39,0,0,0,2.84-1.25,6,6,0,0,0,1-3.67,5.87,5.87,0,0,0-1-3.64,3.43,3.43,0,0,0-2.86-1.24A3.36,3.36,0,0,0,164,108.7,5.89,5.89,0,0,0,163,112.35Zm14.8,6.28h-1.9V100.82h1.9ZM190,115.21a3.13,3.13,0,0,1-1.3,2.7,6.11,6.11,0,0,1-3.67,1,7.92,7.92,0,0,1-3.89-.79v-1.76A8.81,8.81,0,0,0,183,117a7.91,7.91,0,0,0,2,.26,4.52,4.52,0,0,0,2.29-.47,1.58,1.58,0,0,0,.8-1.45,1.54,1.54,0,0,0-.64-1.25,9.79,9.79,0,0,0-2.47-1.23,13.92,13.92,0,0,1-2.49-1.14,3.41,3.41,0,0,1-1.1-1.11,2.86,2.86,0,0,1-.36-1.47,2.83,2.83,0,0,1,1.24-2.43,5.87,5.87,0,0,1,3.43-.88,10,10,0,0,1,4,.82l-.68,1.55a9.08,9.08,0,0,0-3.42-.78,4,4,0,0,0-2,.42,1.31,1.31,0,0,0-.69,1.17,1.44,1.44,0,0,0,.26.86,2.45,2.45,0,0,0,.83.67,16.94,16.94,0,0,0,2.2.93,8.24,8.24,0,0,1,3,1.64A2.89,2.89,0,0,1,190,115.21Z" />
      </g>
    </g>
  </g>
</svg>
