<?xml version="1.0" encoding="UTF-8" standalone="no"?>
<svg
   id="Ebene_1"
   data-name="Ebene 1"
   viewBox="0 0 225 225"
   version="1.1"
   sodipodi:docname="whyicare_1.svg"
   inkscape:version="1.1.1 (1:1.1+202109281944+c3084ef5ed)"
   xmlns:inkscape="http://www.inkscape.org/namespaces/inkscape"
   xmlns:sodipodi="http://sodipodi.sourceforge.net/DTD/sodipodi-0.dtd"
   xmlns="http://www.w3.org/2000/svg"
   xmlns:svg="http://www.w3.org/2000/svg">
  <sodipodi:namedview
     id="namedview23"
     pagecolor="#ffffff"
     bordercolor="#666666"
     borderopacity="1.0"
     inkscape:pageshadow="2"
     inkscape:pageopacity="0.0"
     inkscape:pagecheckerboard="0"
     showgrid="false"
     inkscape:zoom="3.5866667"
     inkscape:cx="57.574349"
     inkscape:cy="112.5"
     inkscape:window-width="1856"
     inkscape:window-height="1016"
     inkscape:window-x="0"
     inkscape:window-y="0"
     inkscape:window-maximized="1"
     inkscape:current-layer="Ebene_1" />
  <defs
     id="defs11">
    <style
       id="style9">.cls-1,.cls-3,.cls-4{fill:#fff8f0;}.cls-2{fill:none;}.cls-2,.cls-3{stroke:#0d1317;}.cls-4{stroke:#fec601;}</style>
  </defs>
  <title
     id="title13">whyicare_1</title>
  <g
     id="Page-1">
    <g
       id="Desktop-_1140_"
       data-name="Desktop-(&lt;1140)">
      <g
         id="wherefrom_1"
         data-name="wherefrom 1">
        <circle
           id="Oval"
           class="cls-1"
           cx="112.5"
           cy="112.5"
           r="112"
           style="fill:#f7f7f7;fill-opacity:1" />
        <path
           id="Path"
           class="cls-2"
           d="M116.5,224.5V51.31A38.38,38.38,0,0,0,113,36.43a54.59,54.59,0,0,0-3.59,14.91q-.45,6.78,0,173.12"
           style="stroke:#141414;stroke-opacity:1" />
        <path
           id="Shape"
           class="cls-3"
           d="M28.8,71.3,189.9,57a3.24,3.24,0,0,1,3.6,3.28V92.7a4,4,0,0,1-3.6,3.92L63.32,106.06,25.2,101.5V75.22A4,4,0,0,1,28.8,71.3Zm25,11.55-8.46.75v1L49,84.23V95.61l1.06-.09V84.14l3.62-.32Zm11.14-1-6.26.55V94.75l6.39-.56v-.9l-5.31.47v-5l4.37-.39v-.9l-4.37.39V83.23l5.06-.45Zm9.63-1.05a4.93,4.93,0,0,0-2.53,1,5.67,5.67,0,0,0-1.79,2.32,8.64,8.64,0,0,0-.66,3.52A8,8,0,0,0,70.24,91a4.11,4.11,0,0,0,4.33,2.52A5.05,5.05,0,0,0,77.89,92l-.55-.65a6.4,6.4,0,0,1-1.24.87,4.22,4.22,0,0,1-1.5.4,3.32,3.32,0,0,1-2-.41,3.38,3.38,0,0,1-1.37-1.69,7.56,7.56,0,0,1-.51-3,6.81,6.81,0,0,1,1.09-4.2,3.86,3.86,0,0,1,2.83-1.58,3.5,3.5,0,0,1,1.32.1,4.17,4.17,0,0,1,1.21.61l.57-.77a5,5,0,0,0-1.43-.73A4.52,4.52,0,0,0,74.58,80.82ZM90,92l1.08-.1V79.55l-1.08.1V85l-5.9.52V80.17l-1.08.1V92.6l1.08-.1v-6L90,86Zm15.9-1.41V78.24l-1,.09v7.49c0,1,0,2.25.14,3.64L99.15,78.83,97.77,79V91.29l1-.09V84.3c0-1.33,0-2.74-.14-4.23l5.81,10.62Zm10.9-13.5a5.1,5.1,0,0,0-2.62,1,5.6,5.6,0,0,0-1.77,2.35,9,9,0,0,0-.63,3.5,8.06,8.06,0,0,0,.63,3.38,4.21,4.21,0,0,0,1.77,2,4.37,4.37,0,0,0,2.62.51,5.18,5.18,0,0,0,2.67-1,5.53,5.53,0,0,0,1.75-2.34,8.87,8.87,0,0,0,.62-3.48,8.23,8.23,0,0,0-.63-3.42,4.17,4.17,0,0,0-1.76-2A4.52,4.52,0,0,0,116.79,77.07Zm0,.92a3.1,3.1,0,0,1,2.87,1.11,6.26,6.26,0,0,1,1,4,7.13,7.13,0,0,1-1,4.17,3.76,3.76,0,0,1-2.88,1.61A3.08,3.08,0,0,1,114,87.76a6.13,6.13,0,0,1-1.06-4,7.14,7.14,0,0,1,1-4.19A3.75,3.75,0,0,1,116.79,78Zm12-1.78-1.08.09V88.63l6.08-.54.15-1-5.15.45Zm13.55-1.4a5,5,0,0,0-2.62,1A5.63,5.63,0,0,0,138,78.15a9,9,0,0,0-.63,3.49A8,8,0,0,0,138,85a4.28,4.28,0,0,0,1.77,2,4.44,4.44,0,0,0,2.62.5,5.18,5.18,0,0,0,2.67-1,5.49,5.49,0,0,0,1.75-2.33,8.92,8.92,0,0,0,.62-3.49,8.29,8.29,0,0,0-.63-3.42,4.17,4.17,0,0,0-1.76-2A4.52,4.52,0,0,0,142.35,74.81Zm0,.91a3.12,3.12,0,0,1,2.87,1.11,6.28,6.28,0,0,1,1,4,7.13,7.13,0,0,1-1,4.17,3.71,3.71,0,0,1-2.88,1.61,3.07,3.07,0,0,1-2.83-1.11,6.16,6.16,0,0,1-1.06-4,7.14,7.14,0,0,1,1-4.19A3.75,3.75,0,0,1,142.35,75.72Zm15.27-2.27a5.29,5.29,0,0,0-2.55.94,5.6,5.6,0,0,0-1.89,2.31,8.2,8.2,0,0,0-.71,3.53,6.73,6.73,0,0,0,1.37,4.65,4.21,4.21,0,0,0,3.72,1.3,7.81,7.81,0,0,0,3.66-1.33V79l-3.6.32.12.89,2.41-.22v4.38a5.59,5.59,0,0,1-2.59.88,3.15,3.15,0,0,1-2.91-1.11,6.31,6.31,0,0,1-1.05-4,7.56,7.56,0,0,1,.57-3.12,4.5,4.5,0,0,1,1.48-1.91,4,4,0,0,1,2-.73,3.91,3.91,0,0,1,1.44.11,4.3,4.3,0,0,1,1.29.64l.65-.74a5.15,5.15,0,0,0-1.57-.79A4.94,4.94,0,0,0,157.62,73.45Zm16.65-1.27-1.15.1-3.26,6.84-3.32-6.26-1.2.11,3.94,7.17V85l1.08-.1V80Z"
           style="stroke:#141414;stroke-opacity:1;fill:#f7f7f7;fill-opacity:1" />
        <path
           id="Shape-2"
           data-name="Shape"
           class="cls-4"
           d="M21.6,100.84l174,21.09a4.36,4.36,0,0,1,3.89,4.07v32.4a3.26,3.26,0,0,1-3.89,3.13l-174-21.09a4.35,4.35,0,0,1-3.88-4.07V104A3.25,3.25,0,0,1,21.6,100.84Zm15.69,15.67-1.17-.14V128.7l6.57.79.16-1-5.56-.67ZM49.48,118l-1.17-.14v12.33l1.17.14Zm12.58,7.32a2.64,2.64,0,0,0,1.77-.67,2.26,2.26,0,0,0,.68-1.75,2.91,2.91,0,0,0-1.26-2.46,7.46,7.46,0,0,0-3.57-1.21l-3-.36v12.33l3.63.44a5.76,5.76,0,0,0,3.52-.42,2.5,2.5,0,0,0,1.27-2.42,3.12,3.12,0,0,0-.86-2.32A4.4,4.4,0,0,0,62.06,125.31Zm-4.18-5.4,1.92.23a5.68,5.68,0,0,1,2.63.84,2.11,2.11,0,0,1,.89,1.83,1.77,1.77,0,0,1-.76,1.58,2.87,2.87,0,0,1-2,.36l-2.68-.33Zm2.46,10.82-2.46-.29v-5.15l2.81.34a4.36,4.36,0,0,1,2.35.93,2.59,2.59,0,0,1,.88,2.09Q63.92,131.17,60.34,130.73ZM78,121.45l-6.77-.82V133l6.9.83v-.9l-5.73-.69v-5l4.72.57v-.9l-4.72-.57v-4.59l5.46.66Zm9.93,8,3.44,6,1.39.16-3.66-6.16a3.83,3.83,0,0,0,2.22-.87,2.63,2.63,0,0,0,.75-2q0-3.34-4.74-3.92l-3.23-.39v12.33l1.17.14v-5.53Zm-.44-.93-2.22-.27v-5l2,.24a5.2,5.2,0,0,1,2.7.94,2.4,2.4,0,0,1,.84,2Q90.85,128.93,87.51,128.52Zm18.27,8.62,1.23.15-4.44-12.87-1.45-.17L96.66,136l1.19.14L99,133l5.6.67Zm-6.43-5.06,2.49-6.87,2.46,7.47Zm14.23-6.32-1.17-.15v12.33l6.57.8.16-1-5.56-.68Zm26.64,15.55,1.22.15L137,128.6l-1.46-.18-4.45,11.79,1.18.14,1.17-3.22,5.6.68Zm-6.44-5.06,2.49-6.86,2.47,7.46Zm16.9.81,3.44,5.94,1.38.17L151.84,137a3.83,3.83,0,0,0,2.22-.87,2.63,2.63,0,0,0,.76-2q0-3.34-4.75-3.92l-3.22-.39v12.33l1.16.14v-5.53Zm-.45-.94-2.22-.27v-5l2,.25a5.19,5.19,0,0,1,2.71.93,2.44,2.44,0,0,1,.83,2Q153.57,136.53,150.23,136.12Zm17.89-3.75L159,131.26v1l4,.48v11.38l1.14.14V132.83l3.91.47Zm7.91.76a4.62,4.62,0,0,0-2,.14,2.71,2.71,0,0,0-1.38.91,2.36,2.36,0,0,0-.5,1.5,2.9,2.9,0,0,0,.88,2.16,9.12,9.12,0,0,0,2.91,1.68,12.39,12.39,0,0,1,1.9.94,2.87,2.87,0,0,1,1,1,2.49,2.49,0,0,1,.3,1.27,2,2,0,0,1-.9,1.8,3.37,3.37,0,0,1-2.34.42,5.66,5.66,0,0,1-1.93-.57,7.22,7.22,0,0,1-1.65-1.18l-.66.61a7.1,7.1,0,0,0,4.25,2.06,5.32,5.32,0,0,0,2.33-.17,3,3,0,0,0,1.54-1.07,2.91,2.91,0,0,0,.55-1.79,3.36,3.36,0,0,0-.45-1.78,4,4,0,0,0-1.26-1.27,13.67,13.67,0,0,0-2.14-1.07,13.16,13.16,0,0,1-1.89-.9,3,3,0,0,1-.94-.87,2.08,2.08,0,0,1-.28-1.11,1.58,1.58,0,0,1,.76-1.43,3.05,3.05,0,0,1,2-.32,4.84,4.84,0,0,1,1.63.47,6.71,6.71,0,0,1,1.48,1l.68-.6a6.83,6.83,0,0,0-1.72-1.24A6.31,6.31,0,0,0,176,133.13Z"
           style="fill:#f7f7f7;fill-opacity:1" />
      </g>
    </g>
  </g>
</svg>
