<?xml version="1.0" encoding="UTF-8" standalone="no"?>
<svg
   id="Ebene_1"
   data-name="Ebene 1"
   viewBox="0 0 225 225"
   version="1.1"
   sodipodi:docname="whyicare_4.svg"
   inkscape:version="1.1.1 (1:1.1+202109281944+c3084ef5ed)"
   xmlns:inkscape="http://www.inkscape.org/namespaces/inkscape"
   xmlns:sodipodi="http://sodipodi.sourceforge.net/DTD/sodipodi-0.dtd"
   xmlns="http://www.w3.org/2000/svg"
   xmlns:svg="http://www.w3.org/2000/svg">
  <sodipodi:namedview
     id="namedview1958"
     pagecolor="#ffffff"
     bordercolor="#666666"
     borderopacity="1.0"
     inkscape:pageshadow="2"
     inkscape:pageopacity="0.0"
     inkscape:pagecheckerboard="0"
     showgrid="false"
     inkscape:zoom="3.4755556"
     inkscape:cx="55.674552"
     inkscape:cy="112.35614"
     inkscape:window-width="1856"
     inkscape:window-height="1016"
     inkscape:window-x="0"
     inkscape:window-y="0"
     inkscape:window-maximized="1"
     inkscape:current-layer="Ebene_1" />
  <defs
     id="defs1943">
    <style
       id="style1941">.cls-1{fill:#fff8f0;}.cls-2,.cls-3,.cls-4{fill:none;}.cls-2,.cls-3{stroke:#0d1317;}.cls-3{stroke-linecap:square;}.cls-4{stroke:#fec601;}</style>
  </defs>
  <title
     id="title1945">whyicare_4</title>
  <g
     id="Page-1">
    <g
       id="Desktop-_1140_"
       data-name="Desktop-(&lt;1140)">
      <g
         id="wherefrom_4"
         data-name="wherefrom 4">
        <circle
           id="Oval-Copy-2"
           class="cls-1"
           cx="112.5"
           cy="112.5"
           r="112"
           style="fill:#f7f7f7;fill-opacity:1" />
        <path
           id="_80"
           data-name="80"
           class="cls-2"
           d="M49.28,75.12a16.77,16.77,0,0,1,6.48,4.18,9.12,9.12,0,0,1,2,6.14A9.84,9.84,0,0,1,56.22,91a10.45,10.45,0,0,1-4.44,3.72A15.4,15.4,0,0,1,45.24,96a15.06,15.06,0,0,1-6.48-1.32,9.8,9.8,0,0,1-5.84-9.22q0-7.36,8.24-10.65a13.11,13.11,0,0,1-5-3.6A8.32,8.32,0,0,1,34.59,66a8.85,8.85,0,0,1,1.5-5.12,9.31,9.31,0,0,1,4-3.31,12.67,12.67,0,0,1,5.3-1.13,13,13,0,0,1,5.3,1.1,9.6,9.6,0,0,1,4,3.22A8.66,8.66,0,0,1,56.19,66a8.2,8.2,0,0,1-1.67,5.15A15.45,15.45,0,0,1,49.28,75.12Zm-11.35-9a6,6,0,0,0,1.58,4.38A15.34,15.34,0,0,0,45,73.51l1.79.64a14.36,14.36,0,0,0,4.64-3.58,7.14,7.14,0,0,0,1.41-4.49A6.5,6.5,0,0,0,50.8,61a7.8,7.8,0,0,0-5.44-1.85A7.78,7.78,0,0,0,40,61,6.48,6.48,0,0,0,37.93,66.08ZM45.3,93.21a9.88,9.88,0,0,0,6.54-2,7.08,7.08,0,0,0,2.45-5.73,7.68,7.68,0,0,0-.87-3.84A7.52,7.52,0,0,0,50.77,79a28.6,28.6,0,0,0-5-2.34l-2-.75a12.5,12.5,0,0,0-5.61,3.83,9.38,9.38,0,0,0-1.76,5.79,7,7,0,0,0,2.42,5.71A9.76,9.76,0,0,0,45.3,93.21ZM76.69,56.46a9.88,9.88,0,0,1,9,5q3.06,5,3,14.78T85.65,91a10.5,10.5,0,0,1-17.94,0q-3.06-5-3-14.77t3-14.75A9.87,9.87,0,0,1,76.69,56.46Zm0,2.77q-8.58,0-8.58,17t8.58,17q4.22,0,6.37-4.15t2.16-12.84q0-8.7-2.16-12.88T76.69,59.23Z"
           style="stroke:#141414;stroke-opacity:1" />
        <path
           id="_"
           data-name="="
           class="cls-2"
           d="M112.18,108.76v-2.93h20.44v2.93Zm0,10.08v-2.93h20.44v2.93Z"
           style="stroke:#141414;stroke-opacity:1" />
        <path
           id="_20"
           data-name="20"
           class="cls-2"
           d="M44.52,129.36a10.45,10.45,0,0,1,7.69,2.82,9.77,9.77,0,0,1,2.86,7.26,16.17,16.17,0,0,1-1.56,7,34.2,34.2,0,0,1-4.87,7.2q-3.3,3.92-10.68,11.69H56.1l-.46,2.94H34v-2.82q7.89-8.41,11.32-12.47a34.83,34.83,0,0,0,4.84-7,14.64,14.64,0,0,0,1.41-6.36,7.36,7.36,0,0,0-2-5.42,7.08,7.08,0,0,0-5.27-2,9.78,9.78,0,0,0-4.69,1.1,13.4,13.4,0,0,0-3.89,3.28l-2.3-1.73a15.09,15.09,0,0,1,5-4.14A13.41,13.41,0,0,1,44.52,129.36Zm30.48,0a9.86,9.86,0,0,1,9,5q3.06,5,3,14.78T84,163.89a10.5,10.5,0,0,1-17.94,0q-3.06-5-3.05-14.77T66,134.37A9.88,9.88,0,0,1,75,129.36Zm0,2.77q-8.59,0-8.59,17t8.59,17q4.2,0,6.36-4.15t2.16-12.84q0-8.7-2.16-12.88T75,132.13Z"
           style="stroke:#141414;stroke-opacity:1" />
        <path
           id="Line"
           class="cls-3"
           d="M27.08,117.37l72-10.08"
           style="stroke:#141414;stroke-opacity:1" />
        <g
           id="Group-8">
          <path
             id="Combined-Shape"
             class="cls-4"
             d="M178.2,102.09c4.93-24.16,46.43-22.09,27.47,7.25-2.65,4.11-21.86,24.78-27.43,31v.09l0-.05,0,.05v-.09c-5.57-6.19-24.78-26.86-27.43-31C131.77,80,173.27,77.93,178.2,102.09Z" />
        </g>
      </g>
    </g>
  </g>
</svg>
