<?xml version="1.0" encoding="UTF-8" standalone="no"?>
<svg
   id="Ebene_1"
   data-name="Ebene 1"
   viewBox="0 0 225 225"
   version="1.1"
   sodipodi:docname="whyicare_3.svg"
   inkscape:version="1.1.1 (1:1.1+202109281944+c3084ef5ed)"
   xmlns:inkscape="http://www.inkscape.org/namespaces/inkscape"
   xmlns:sodipodi="http://sodipodi.sourceforge.net/DTD/sodipodi-0.dtd"
   xmlns="http://www.w3.org/2000/svg"
   xmlns:svg="http://www.w3.org/2000/svg">
  <sodipodi:namedview
     id="namedview1610"
     pagecolor="#ffffff"
     bordercolor="#666666"
     borderopacity="1.0"
     inkscape:pageshadow="2"
     inkscape:pageopacity="0.0"
     inkscape:pagecheckerboard="0"
     showgrid="false"
     inkscape:zoom="3.4755556"
     inkscape:cx="55.674552"
     inkscape:cy="112.35614"
     inkscape:window-width="1856"
     inkscape:window-height="1016"
     inkscape:window-x="0"
     inkscape:window-y="0"
     inkscape:window-maximized="1"
     inkscape:current-layer="Ebene_1" />
  <defs
     id="defs1589">
    <style
       id="style1587">.cls-1{fill:#fff8f0;}.cls-2,.cls-3,.cls-4{fill:none;}.cls-2,.cls-3{stroke:#0d1317;}.cls-3{stroke-linecap:square;}.cls-4{stroke:#fec601;stroke-width:1.5px;}</style>
  </defs>
  <title
     id="title1591">whyicare_3</title>
  <g
     id="Page-1">
    <g
       id="Desktop-_1140_"
       data-name="Desktop-(&lt;1140)">
      <g
         id="wherefrom_3"
         data-name="wherefrom 3">
        <circle
           id="Oval-Copy-2"
           class="cls-1"
           cx="112.5"
           cy="112.5"
           r="112"
           style="fill:#f7f7f7;fill-opacity:1" />
        <path
           id="Combined-Shape"
           class="cls-2"
           d="M210.1,167.48v-110"
           style="stroke:#141414;stroke-opacity:1" />
        <path
           id="Combined-Shape-2"
           data-name="Combined-Shape"
           class="cls-2"
           d="M13.1,60.84V164.16"
           style="stroke:#141414;stroke-opacity:1" />
        <path
           id="Combined-Shape-3"
           data-name="Combined-Shape"
           class="cls-2"
           d="M186.47,28.4H38.53"
           style="stroke:#141414;stroke-opacity:1" />
        <rect
           id="Rectangle"
           class="cls-2"
           x="41"
           y="59"
           width="143"
           height="107"
           rx="4"
           ry="4"
           style="stroke:#141414;stroke-opacity:1" />
        <path
           id="Line"
           class="cls-3"
           d="M104,196.65h70.2"
           style="stroke:#141414;stroke-opacity:1" />
        <g
           id="Group-9">
          <path
             id="Path-2"
             class="cls-4"
             d="M59.4,118.49c4.18-1.55,9.64-10.75,14.4-16.8,8.1-10.3-4.16-6.55-4.76,0-.85,9.38,1.39,18.8,1.45,28.22,0,.44-.85-.17-1.27-.25" />
          <path
             id="Path-3"
             class="cls-4"
             d="M70.09,115.23c4-3.24,6.38-1.12,8-.8,5.78,1.16-.74,19.87,6,15.77,3.84-2.34,21.46-17.54,10-17.66-2.54,0-4.77,8.67-4.75,8.79,1,5.49,7.34,14.61,14.18,7,5.13-5.74,8.76-12.71,12.27-19.57,1.6-3.11,2.25-6.66,2.92-10.1a5.67,5.67,0,0,0-.3-3.36c-4.85-10.46-14.06,31.88-5.13,34.67,12.83,4,29.65-29.53,23.37-34.64-2.26-1.83-4.37,2-4.55,2.32-1.52,2.94-2.11,6.85-2.55,10.13-1.21,8.91.08,23,5.42,22.46h1.14" />
          <path
             id="Path-6"
             class="cls-4"
             d="M165.71,129.86c-3.73.53,3,1.89-.56-.08" />
          <path
             id="Path-4"
             class="cls-4"
             d="M135.59,130.33c1.63-.88,3.71-1.55,5.34-2.43Z" />
          <path
             id="Path-7"
             class="cls-4"
             d="M148.27,114c-10.72,3.71-11.78,17.62-2.71,17.54,12.69-.13,15.24-18.73,2.63-17.54" />
          <path
             id="Path-5"
             class="cls-4"
             d="M154.52,115.49c5.93,1.06,3.24,1.34,8.13-.29" />
        </g>
      </g>
    </g>
  </g>
</svg>
